<?xml version="1.0" standalone="no"?>
<!DOCTYPE svg PUBLIC "-//W3C//DTD SVG 1.1//EN" "http://www.w3.org/Graphics/SVG/1.1/DTD/svg11.dtd">
<svg xmlns:xlink="http://www.w3.org/1999/xlink" xmlns="http://www.w3.org/2000/svg" filter="url(#colors3556487778)" x="0" y="0" width="60" height="62.04821146030466" filtersec="colorsf9049494595" class="image-svg-svg primary" style="overflow: visible;" fill="#1F2937" viewBox="0 0 60 62.04821146030466"><svg xmlns="http://www.w3.org/2000/svg" xmlns:xlink="http://www.w3.org/1999/xlink" version="1.1" x="0px" y="0px" viewBox="4.949001312255859 3.006999969482422 56.05099868774414 57.96464157104492" xml:space="preserve" fill="#1F2937"><g fill="#1F2937"><path d="M33.631,31.224l2.057,2.057l-2.71,1.356c-1.284,0.642-2.472,1.444-3.542,2.392l1.979,1.979L26.121,44.3   c-0.449,0.449-1.071,0.707-1.707,0.707c-1.331,0-2.414-1.083-2.414-2.414v-0.48c-1.17,0.248-2.223,0.927-2.931,1.917L15.5,49.028   c-2.063,2.888-4.483,5.427-7.22,7.602c3.715,0.796,7.69,0.242,11.024-1.609c3.367-1.871,6.456-4.201,9.18-6.925l7.802-7.803   l0.004,0.004l2.302-2.763c1.636-1.962,3.742-3.399,6.142-4.199c-0.468-1.655-0.496-3.401-0.076-5.078   c0.275-1.104,0.734-2.141,1.363-3.084l0.566-0.848l-3.306-1.984C40.726,25.927,37.419,28.984,33.631,31.224z" fill="#1F2937"/><path d="M29.898,49.51c-2.855,2.855-6.093,5.298-9.623,7.259c-2.637,1.465-5.624,2.238-8.639,2.238   c-1.841,0-3.655-0.297-5.407-0.857c-0.421,0.29-0.845,0.577-1.28,0.852c4.683,2.617,10.668,2.629,15.367,0.019   c3.367-1.871,6.456-4.201,9.18-6.925l7.246-7.246c0.416-0.416,0.621-0.99,0.563-1.575c-0.031-0.315-0.141-0.608-0.308-0.866   L29.898,49.51z" fill="#1F2937"/><path d="M57.944,6.561C57.978,6.381,58,6.197,58,6.007c0-1.654-1.346-3-3-3s-3,1.346-3,3s1.346,3,3,3   c0.708,0,1.351-0.257,1.864-0.668C58.244,9.973,59,12.017,59,14.179c0,1.534-0.622,3.036-1.707,4.121s-2.587,1.707-4.121,1.707   c-1.058,0-2.113-0.151-3.138-0.418c0.097-0.103,0.185-0.215,0.285-0.314c1.234-1.234,2.256-2.651,3.036-4.213   C53.777,14.218,54,13.273,54,12.328v-1.421c-1.022-0.208-1.924-0.736-2.617-1.465c-1.714,0.878-3.133,2.3-3.994,4.022   c-0.296,0.592-0.527,1.219-0.688,1.861l-0.116,0.465c-0.176,0.703-0.411,1.385-0.68,2.052l-1.879-0.94   c-2.479-1.239-5.254-1.895-8.025-1.895h-1c-4.963,0-9,4.037-9,9h2c0-3.859,3.141-7,7-7h1c2.462,0,4.928,0.582,7.131,1.684   l1.915,0.958c-0.195,0.347-0.399,0.69-0.621,1.024l-0.012,0.017l3.284,1.971l0.666-1c0.091-0.137,0.198-0.263,0.294-0.397   c1.456,0.479,2.983,0.744,4.515,0.744c2.061,0,4.078-0.836,5.535-2.293S61,16.24,61,14.179C61,11.338,59.927,8.665,57.944,6.561z    M56,7.007h-2v-2h2V7.007z" fill="#1F2937"/></g></svg></svg>